Coordinates
version=1
nRows=17
nColumns=36
inDegrees=yes

Units are S.I. units (second, meters, Newtons, ...)
If the header above contains a line with 'inDegrees', this indicates whether rotational values are in degrees (yes) or radians (no).

endheader
time	pelvis_tilt	pelvis_list	pelvis_rotation	pelvis_tx	pelvis_ty	pelvis_tz	hip_flexion_r	hip_adduction_r	hip_rotation_r	knee_angle_r	knee_angle_r_beta	ankle_angle_r	subtalar_angle_r	mtp_angle_r	hip_flexion_l	hip_adduction_l	hip_rotation_l	knee_angle_l	knee_angle_l_beta	ankle_angle_l	subtalar_angle_l	mtp_angle_l	lumbar_extension	lumbar_bending	lumbar_rotation	arm_flex_r	arm_add_r	arm_rot_r	elbow_flex_r	pro_sup_r	arm_flex_l	arm_add_l	arm_rot_l	elbow_flex_l	pro_sup_l
      0.00000000	      3.26338643	      3.50460901	      7.17645510	     -0.15013806	      0.91953370	     -0.27624381	     26.41752464	     -7.46291323	      6.36600777	      5.89526949	      0.10289186	      9.53787041	      4.33985998	     -5.24994717	    -22.72125261	      1.85289249	     11.14427525	      9.90787474	      0.17292504	     19.56011598	     12.53371188	     -5.24994717	     -7.92342953	     -3.49289764	     -9.17846583	    -16.59352767	     -3.12310730	    -17.88605744	     29.66507787	    111.39361467	     -2.58926447	    -10.17522589	     -8.44568741	     52.18833402	    108.63610850
      0.01000000	      3.10637369	      3.51521059	      7.36043512	     -0.13446590	      0.91791745	     -0.27444112	     26.18453817	     -7.31030270	      6.30429428	      6.55207748	      0.11435532	      8.91979197	      4.06964488	     -5.38951066	    -22.96405800	      1.64792771	     10.96753426	     10.86894169	      0.18969882	     18.42323346	     12.13897980	     -5.38951066	     -7.48215221	     -3.45806239	     -9.36869797	    -16.94131514	     -2.87305164	    -19.28003008	     29.86809284	    111.54519329	     -3.21729863	     -9.82933176	     -9.32932678	     51.55984919	    109.44484220
      0.02000000	      2.93461505	      3.48126287	      7.56258031	     -0.11876712	      0.91639548	     -0.27259990	     25.96946311	     -7.11158785	      6.18551464	      7.20063040	      0.12567471	      8.08261838	      3.90463963	     -5.41779487	    -23.09139495	      1.36897617	     10.66480289	     11.95452140	      0.20864576	     17.29429448	     12.00352638	     -5.41779487	     -6.99432002	     -3.39789833	     -9.48791429	    -17.29525832	     -2.87146522	    -19.33341398	     29.70939914	    111.58781953	     -3.72236118	     -9.63079965	     -9.57548215	     50.70749831	    109.48097793
      0.03000000	      2.66877126	      3.37578658	      7.66851412	     -0.10298917	      0.91496374	     -0.27059191	     25.85914756	     -6.78167609	      6.21959282	      7.79849724	      0.13610945	      6.82137892	      3.52919647	     -5.46054543	    -23.01232832	      1.07736307	     10.35660636	     13.20173791	      0.23041379	     16.03269085	     11.73657268	     -5.46054543	     -6.35978769	     -3.26329222	     -9.50483826	    -17.60538124	     -2.92023567	    -19.42469457	     29.44429563	    111.62959262	     -4.21440872	     -9.34354116	    -10.00720359	     49.65097630	    109.53017220
      0.04000000	      2.45110447	      3.18044406	      7.74210999	     -0.08714991	      0.91394238	     -0.26842586	     25.72504645	     -6.32430333	      6.16865927	      8.44529567	      0.14739822	      5.43023093	      3.42731477	     -5.48660444	    -22.78008358	      0.68335811	      9.85633733	     14.72148936	      0.25693846	     14.47206081	     11.47805014	     -5.48660444	     -5.77692502	     -3.02371355	     -9.52017428	    -17.87755120	     -2.96588169	    -19.47176698	     29.23054957	    111.64322933	     -4.76145543	     -9.07592078	    -10.38071749	     48.62850935	    109.50280493
      0.05000000	      2.17181472	      2.86659549	      7.68217094	     -0.07127317	      0.91321307	     -0.26603677	     25.73954231	     -5.67180358	      6.20769614	      9.20892108	      0.16072599	      3.86581799	      3.30138702	     -5.51270839	    -22.26300376	      0.22565307	      9.20762759	     16.54926924	      0.28883924	     12.67169955	     11.15025676	     -5.51270839	     -5.09577059	     -2.65718296	     -9.38214678	    -18.11989047	     -3.07319228	    -19.48907250	     28.95371332	    111.65233187	     -5.26899718	     -8.70796836	    -10.86534295	     47.36455055	    109.43452705
      0.06000000	      1.94690782	      2.45798580	      7.48726231	     -0.05543907	      0.91295556	     -0.26348131	     25.77951981	     -4.83831099	      6.34135912	     10.15536337	      0.17724453	      2.50587203	      3.14593025	     -5.53511338	    -21.58039197	     -0.29002943	      8.44309941	     18.68192140	      0.32606104	     10.65265338	     10.82185334	     -5.53511338	     -4.48402619	     -2.16065332	     -9.11638496	    -18.30414617	     -3.22459205	    -19.46372312	     28.70771038	    111.66115713	     -5.75841101	     -8.29217325	    -11.35037247	     46.03497996	    109.34323959
      0.07000000	      1.55410133	      1.94090061	      7.13289496	     -0.03972785	      0.91281992	     -0.26064788	     26.12615503	     -3.78391097	      6.93681092	     11.35974553	      0.19826496	      1.05495576	      2.25719652	     -5.59041261	    -20.46790941	     -0.84733468	      7.64853706	     21.16074043	      0.36932459	      8.41809405	     10.40668801	     -5.59041261	     -3.62706042	     -1.58019890	     -8.58975813	    -18.52526849	     -3.43411954	    -19.28631929	     28.37570476	    111.69505978	     -6.03270233	     -7.74256544	    -12.04821018	     44.15051901	    109.29126418
      0.08000000	      1.50137322	      1.28585838	      6.69755566	     -0.02411418	      0.91347270	     -0.25783683	     26.13000239	     -2.55068849	      7.21732887	     12.72564879	      0.22210447	      0.48492239	      1.94801319	     -5.61560453	    -19.45224584	     -1.62070139	      6.53024401	     23.96699000	      0.41830289	      5.68295013	     10.09413334	     -5.61560453	     -3.27663165	     -0.72621232	     -8.11920827	    -18.63433954	     -3.71107315	    -19.19589200	     28.31932698	    111.71105284	     -6.50528208	     -7.25700514	    -12.50685552	     42.83960687	    109.20782481
      0.09000000	      1.41033530	      0.60335612	      6.14937051	     -0.00879412	      0.91432293	     -0.25497237	     26.22605995	     -1.23357419	      7.71446923	     14.24506774	      0.24862333	      0.28346135	      1.38002364	     -5.63949835	    -18.14725819	     -2.41488316	      5.39881100	     27.08420384	      0.47270853	      2.63154946	      9.72198411	     -5.63949835	     -2.91092366	      0.18760326	     -7.45684901	    -18.74702948	     -4.04514838	    -19.05914639	     28.36149123	    111.73917556	     -6.82402914	     -6.67876230	    -13.12688992	     41.28459853	    109.08696547
      0.10000000	      1.29313074	     -0.02890174	      5.52111466	      0.00613079	      0.91538758	     -0.25196818	     26.30558546	      0.11343344	      8.63785803	     15.77377836	      0.27530437	      0.04849300	      0.13892052	     -5.69904302	    -16.61234817	     -3.11386588	      4.55166683	     30.41963763	      0.53092283	     -0.76419120	      8.90364394	     -5.69904302	     -2.58993637	      1.01202634	     -6.62033633	    -18.98061758	     -4.30694120	    -18.79151989	     28.61542080	    111.79158811	     -6.87377703	     -6.05348204	    -13.94653203	     39.38035782	    109.07220239
      0.11000000	      1.37405865	     -0.73078467	      4.87585181	      0.02074886	      0.91688124	     -0.24905636	     26.04180771	      1.51933459	      9.39366825	     17.09712806	      0.29840118	      0.30641171	     -0.74627633	     -5.75133746	    -15.09157730	     -3.96689204	      3.64421298	     33.90788379	      0.59180421	     -4.37980021	      8.31324759	     -5.75133746	     -2.57604440	      1.95919134	     -5.80957839	    -19.10007704	     -4.62528255	    -18.60488796	     29.01826169	    111.83582083	     -7.02990660	     -5.46243869	    -14.69701457	     37.87370358	    109.07742812
      0.12000000	      1.56877414	     -1.47226615	      4.27039358	      0.03500899	      0.91870248	     -0.24627335	     25.49861770	      2.92247957	     10.03672589	     18.16746312	      0.31708205	      0.95087836	     -1.31940144	     -5.77455569	    -13.53193279	     -4.92605225	      2.88166865	     37.46315015	      0.65385532	     -7.77735841	      8.14000156	     -5.77455569	     -2.77541966	      2.94912187	     -5.06644188	    -19.11522614	     -4.96524796	    -18.44871986	     29.41398654	    111.87766241	     -7.25710014	     -4.91144858	    -15.30817574	     36.68591680	    109.00959528
      0.13000000	      1.68894421	     -1.99406702	      3.68401523	      0.04873480	      0.92059455	     -0.24364568	     24.90695505	      4.06459678	     10.84821241	     19.01653191	      0.33190109	      1.37275988	     -2.07272533	     -5.80866345	    -11.75337462	     -5.56918633	      2.51565370	     41.00815611	      0.71572734	    -10.88132594	      7.62417711	     -5.80866345	     -2.95019412	      3.66887291	     -4.21266711	    -19.26787238	     -5.24052411	    -18.19122520	     30.12669450	    111.94168401	     -7.25473680	     -4.37093342	    -16.22344380	     35.22577890	    108.95572461
      0.14000000	      1.90788479	     -2.50678290	      3.19857544	      0.06207907	      0.92279599	     -0.24129463	     24.03335816	      5.10262487	     11.43953833	     19.52188808	      0.34072122	      2.07938323	     -2.55994359	     -5.82904479	    -10.00481120	     -6.19442064	      2.42609981	     44.39679856	      0.77487031	    -13.08645984	      7.61392740	     -5.82904479	     -3.32961950	      4.37900670	     -3.49888096	    -19.20615704	     -5.54941357	    -18.01112584	     30.67066787	    111.98371202	     -7.36994006	     -3.91681030	    -16.83258735	     34.21002169	    108.91086182
      0.15000000	      2.05452197	     -2.82185174	      2.81253381	      0.07494663	      0.92509225	     -0.23923850	     23.14981101	      5.85445129	     12.03535274	     19.87596544	      0.34690104	      2.66596742	     -2.99169823	     -5.85233522	     -8.05907088	     -6.51714603	      2.65527991	     47.65606045	      0.83175516	    -14.32544004	      7.66062160	     -5.85233522	     -3.63853688	      4.82637897	     -2.84317484	    -19.22378251	     -5.79015463	    -17.77211260	     31.37060453	    112.02956441	     -7.41718419	     -3.49827796	    -17.55052950	     33.09598545	    108.86646752
      0.16000000	      2.13877825	     -3.01469065	      2.56363084	      0.08744760	      0.92745316	     -0.23745043	     22.23953936	      6.37560757	     12.44508848	     20.02883334	      0.34956909	      3.33605922	     -3.33191882	     -5.87670038	     -5.96693443	     -6.67279807	      3.12855236	     50.68668598	      0.88464956	    -14.44669732	      7.92824057	     -5.87670038	     -3.90966318	      5.10195790	     -2.32213684	    -19.17656873	     -5.99586731	    -17.54834574	     32.05753258	    112.05862821	     -7.47980072	     -3.19168406	    -18.19888199	     32.09793887	    108.84538673
